# xmcd
#
# Track frame offsets:
#	150
#	15066
#	32426
#	48194
#	66352
#	85046
#
# Disc length: 1353 seconds
#
# Revision: 0
# Processed by: cddbd v1.5.2PL0 Copyright (c) Steve Scherf et al.
# Submitted via: EasyCDDAExtractor 12.0.1.1
#
DISCID=35054706
DTITLE=NINA KRIEG - ONCE UPON A SONG
DYEAR=2006
DGENRE=
TTITLE0=ONCE UPON A SONG
TTITLE1=COFFEE SONG
TTITLE2=SIMPLE MADNESS
TTITLE3=BREATHE FRESH AIR
TTITLE4=GONE
TTITLE5=TO CHANGE
EXTD=
EXTT0=
EXTT1=
EXTT2=
EXTT3=
EXTT4=
EXTT5=
PLAYORDER=
